<svg width="255" height="59" viewBox="0 0 255 59" fill="none" xmlns="http://www.w3.org/2000/svg">
<path d="M166.614 18H169.834C170.958 18 171.52 18 171.967 18.2267C172.151 18.3202 172.318 18.4401 172.461 18.5819C172.809 18.9258 172.945 19.4276 173.218 20.4314L173.578 21.756C173.778 22.4932 173.878 22.8618 174.032 23.1711C174.569 24.2447 175.637 25.0124 176.899 25.2311C177.263 25.2941 177.675 25.2941 178.501 25.2941" fill="black"/>
<path d="M166.614 18H169.834C170.958 18 171.52 18 171.967 18.2267C172.151 18.3202 172.318 18.4401 172.461 18.5819C172.809 18.9258 172.945 19.4276 173.218 20.4314L173.578 21.756C173.778 22.4932 173.878 22.8618 174.032 23.1711C174.569 24.2447 175.637 25.0124 176.899 25.2311C177.263 25.2941 177.675 25.2941 178.501 25.2941" stroke="black" stroke-width="2" stroke-linecap="round"/>
<path d="M194.351 41.7059H173.649C173.359 41.7059 173.214 41.7059 173.104 41.6946C171.94 41.5746 171.143 40.5561 171.387 39.5018C171.41 39.4022 171.456 39.2758 171.548 39.0229C171.649 38.7421 171.7 38.6017 171.756 38.4779C172.332 37.2094 173.633 36.3462 175.122 36.2451C175.267 36.2353 175.428 36.2353 175.75 36.2353H186.426" stroke="black" stroke-width="2" stroke-linecap="round" stroke-linejoin="round"/>
<path d="M189.921 36.2353H177.895C175.958 36.2353 174.305 34.9464 173.987 33.1878L173.134 28.4791C172.832 26.8119 174.229 25.2941 176.065 25.2941H195.108C196.581 25.2941 197.539 26.7207 196.88 27.9332L193.465 34.2192C192.794 35.4548 191.422 36.2353 189.921 36.2353Z" fill="black" stroke="black" stroke-width="2" stroke-linecap="round"/>
<path d="M193.851 47.1765C193.851 47.8692 193.228 48.5 192.37 48.5C191.512 48.5 190.889 47.8692 190.889 47.1765C190.889 46.4837 191.512 45.8529 192.37 45.8529C193.228 45.8529 193.851 46.4837 193.851 47.1765Z" fill="black" stroke="black"/>
<path d="M178.001 47.1765C178.001 47.8692 177.378 48.5 176.52 48.5C175.662 48.5 175.039 47.8692 175.039 47.1765C175.039 46.4837 175.662 45.8529 176.52 45.8529C177.378 45.8529 178.001 46.4837 178.001 47.1765Z" fill="black" stroke="black"/>
<path d="M8.4 33.8C8.4 35.64 9.72 36.56 12.36 36.56C15.0267 36.56 16.36 35.7333 16.36 34.08C16.36 33.2 15.9067 32.48 15 31.92C14.0933 31.36 12.9867 30.8933 11.68 30.52C10.4 30.1467 9.10667 29.72 7.8 29.24C6.52 28.7333 5.42667 27.96 4.52 26.92C3.61333 25.8533 3.16 24.5333 3.16 22.96C3.16 16.2667 7.46667 12.92 16.08 12.92C19.2267 12.92 21.6 13.52 23.2 14.72C24.8267 15.8933 25.64 17.5333 25.64 19.64C25.64 20.4133 25.5333 21.16 25.32 21.88C25.1333 22.5733 24.9333 23.0667 24.72 23.36L24.4 23.84H17.32C17.9067 23.2267 18.2 22.4533 18.2 21.52C18.2 19.7867 17.0667 18.92 14.8 18.92C11.9467 18.92 10.52 19.8267 10.52 21.64C10.52 22.5467 10.9733 23.2667 11.88 23.8C12.7867 24.3333 13.88 24.76 15.16 25.08C16.4667 25.3733 17.7733 25.7467 19.08 26.2C20.3867 26.6533 21.4933 27.4133 22.4 28.48C23.3067 29.52 23.76 30.88 23.76 32.56C23.76 35.9467 22.7467 38.4667 20.72 40.12C18.6933 41.7467 15.5733 42.56 11.36 42.56C7.14667 42.56 4.26667 41.8133 2.72 40.32C1.57333 39.2 1 37.6533 1 35.68C1 34.9333 1.08 34.12 1.24 33.24L1.36 32.6H8.56L8.48 33.08C8.42667 33.3467 8.4 33.5867 8.4 33.8ZM59.3566 26.92C59.3566 27.8 59.0899 28.6133 58.5566 29.36H51.9966C52.2099 29.2 52.3166 28.9333 52.3166 28.56C52.3166 28.1867 52.1032 27.8933 51.6766 27.68C51.2499 27.44 50.7032 27.32 50.0366 27.32C48.0366 27.32 47.0366 27.9333 47.0366 29.16C47.0366 29.64 47.4099 29.9867 48.1566 30.2C48.9032 30.4133 49.8099 30.5867 50.8766 30.72C51.9432 30.8533 53.0099 31.0533 54.0766 31.32C55.1432 31.56 56.0499 32.0533 56.7966 32.8C57.5432 33.5467 57.9166 34.5467 57.9166 35.8C57.9166 38.0133 57.0232 39.6933 55.2366 40.84C53.4766 41.9867 50.9032 42.56 47.5166 42.56C44.1299 42.56 41.7566 42.0133 40.3966 40.92C39.3299 40.0667 38.7966 38.8933 38.7966 37.4C38.7966 36.9733 38.8366 36.5333 38.9166 36.08L45.5966 36C45.5432 36.3733 45.7566 36.7067 46.2366 37C46.7432 37.2667 47.4766 37.4 48.4366 37.4C49.3966 37.4 50.0899 37.3067 50.5166 37.12C50.9432 36.9067 51.1566 36.52 51.1566 35.96C51.1566 35.5867 50.7832 35.3333 50.0366 35.2C49.2899 35.04 48.3699 34.9067 47.2766 34.8C46.2099 34.6933 45.1299 34.52 44.0366 34.28C42.9699 34.04 42.0632 33.5333 41.3166 32.76C40.5699 31.9867 40.1966 30.9733 40.1966 29.72C40.1966 27.2933 41.1299 25.4267 42.9966 24.12C44.8899 22.8133 47.6099 22.16 51.1566 22.16C56.6232 22.16 59.3566 23.7467 59.3566 26.92Z" fill="black"/>
<path d="M35.2575 36.88C35.8708 36.88 36.4175 36.7467 36.8975 36.48L36.6975 41C35.4442 42.04 34.0175 42.56 32.4175 42.56C29.9908 42.56 28.4175 42 27.6975 40.88C27.2175 40.1333 26.9775 39.3467 26.9775 38.52C26.9775 37.6667 27.0308 36.92 27.1375 36.28L29.5375 22.76H36.3375L34.0975 35.36C34.0708 35.52 34.0575 35.6667 34.0575 35.8C34.0575 36.52 34.4575 36.88 35.2575 36.88ZM30.3375 16.24C30.3375 14.5333 30.7108 13.2933 31.4575 12.52C32.2308 11.72 33.4175 11.32 35.0175 11.32C37.2575 11.32 38.3775 12.3067 38.3775 14.28C38.3775 15.96 37.9908 17.1867 37.2175 17.96C36.4708 18.7333 35.2842 19.12 33.6575 19.12C31.4442 19.12 30.3375 18.16 30.3375 16.24Z" fill="#0B4FFF"/>
<path d="M67.3481 41.336C64.0201 41.336 62.3561 40.184 62.3561 37.88C62.3561 37.56 62.3881 37.216 62.4521 36.848L62.9561 33.872C63.2121 32.336 63.9081 31.16 65.0441 30.344C66.1961 29.528 67.6521 29.112 69.4121 29.096C72.8201 29.096 74.5241 30.28 74.5241 32.648C74.5241 33.16 74.4601 33.624 74.3321 34.04C74.2201 34.44 74.1001 34.712 73.9721 34.856L73.7801 35.096H69.7001C70.1001 34.744 70.3001 34.328 70.3001 33.848C70.3001 32.984 69.8681 32.552 69.0041 32.552C68.4921 32.552 68.0521 32.704 67.6841 33.008C67.3161 33.312 67.0761 33.776 66.9641 34.4L66.6521 36.152C66.6201 36.312 66.6041 36.464 66.6041 36.608C66.6041 37.456 67.1321 37.88 68.1881 37.88C68.5401 37.88 68.8521 37.768 69.1241 37.544C69.4121 37.32 69.5801 37.072 69.6281 36.8L73.6121 36.848C73.0841 39.84 70.9961 41.336 67.3481 41.336ZM82.8714 29.12C84.5994 29.12 85.9034 29.496 86.7834 30.248C87.4714 30.84 87.8154 31.664 87.8154 32.72C87.8154 33.072 87.7754 33.456 87.6954 33.872L87.1914 36.68C86.8874 38.376 86.1754 39.576 85.0554 40.28C83.9514 40.984 82.4714 41.336 80.6154 41.336C78.7594 41.336 77.3994 40.984 76.5354 40.28C75.8954 39.752 75.5754 38.96 75.5754 37.904C75.5754 37.536 75.6154 37.128 75.6954 36.68L76.1994 33.872C76.7594 30.704 78.9834 29.12 82.8714 29.12ZM83.5194 34.352C83.5514 34.192 83.5674 33.992 83.5674 33.752C83.5674 33.496 83.4634 33.216 83.2554 32.912C83.0474 32.608 82.6794 32.456 82.1514 32.456C81.6394 32.456 81.2074 32.632 80.8554 32.984C80.5034 33.32 80.2794 33.776 80.1834 34.352L79.8714 36.152C79.8394 36.312 79.8234 36.52 79.8234 36.776C79.8234 37.016 79.9274 37.28 80.1354 37.568C80.3434 37.856 80.7034 38 81.2154 38C81.7434 38 82.1834 37.824 82.5354 37.472C82.8874 37.104 83.1114 36.664 83.2074 36.152L83.5194 34.352ZM109.114 37.928C109.482 37.928 109.81 37.848 110.098 37.688L109.978 40.4C109.226 41.024 108.37 41.336 107.41 41.336C105.234 41.336 104.146 40.424 104.146 38.6C104.146 38.28 104.178 37.936 104.242 37.568L104.746 34.616C104.794 34.328 104.818 34.04 104.818 33.752C104.818 32.984 104.394 32.6 103.546 32.6C102.714 32.6 102.058 32.928 101.578 33.584L100.282 41H96.2023L97.3303 34.616C97.3783 34.328 97.4023 34.04 97.4023 33.752C97.4023 32.984 96.9703 32.6 96.1063 32.6C95.4183 32.6 94.8263 32.864 94.3303 33.392L92.9863 41H88.9063L90.9463 29.456H94.7383L94.4743 30.896C95.4343 29.712 96.6503 29.12 98.1223 29.12C100.202 29.12 101.386 29.808 101.674 31.184C102.634 29.808 103.914 29.12 105.514 29.12C107.13 29.12 108.178 29.48 108.658 30.2C108.978 30.696 109.138 31.24 109.138 31.832C109.138 32.424 109.098 32.96 109.018 33.44L108.418 37.016C108.402 37.112 108.394 37.2 108.394 37.28C108.394 37.712 108.634 37.928 109.114 37.928ZM119.836 29.144C121.468 29.144 122.596 29.576 123.22 30.44C123.668 31.032 123.892 31.784 123.892 32.696C123.892 33.064 123.852 33.456 123.772 33.872L123.292 36.68C123.02 38.2 122.436 39.36 121.54 40.16C120.644 40.944 119.524 41.336 118.18 41.336C116.836 41.336 115.9 40.976 115.372 40.256L114.076 47.672H109.996L113.212 29.456H116.908L116.788 30.104C117.54 29.464 118.556 29.144 119.836 29.144ZM117.34 37.88C117.788 37.88 118.204 37.736 118.588 37.448C118.972 37.16 119.212 36.728 119.308 36.152L119.62 34.352C119.652 34.192 119.668 33.992 119.668 33.752C119.668 33.512 119.564 33.256 119.356 32.984C119.148 32.712 118.788 32.576 118.276 32.576C117.444 32.576 116.9 32.776 116.644 33.176L115.924 37.208C116.148 37.656 116.62 37.88 117.34 37.88ZM136.976 31.904C136.976 32.448 136.88 32.976 136.688 33.488C136.512 34 136.336 34.376 136.16 34.616L135.896 34.952H132.272C132.672 34.584 132.872 34.128 132.872 33.584C132.872 33.296 132.776 33.064 132.584 32.888C132.408 32.696 132.16 32.6 131.84 32.6C131.296 32.6 130.824 32.872 130.424 33.416L129.08 41H125L127.04 29.456H130.832L130.544 31.064C131.456 29.768 132.56 29.12 133.856 29.12C134.896 29.12 135.672 29.368 136.184 29.864C136.712 30.36 136.976 31.04 136.976 31.904ZM148.92 37.304C148.92 37.72 149.128 37.928 149.544 37.928C149.976 37.928 150.336 37.848 150.624 37.688L150.504 40.4C149.736 41.024 148.872 41.336 147.912 41.336C146.152 41.336 145.176 40.696 144.984 39.416C144.184 40.696 143.008 41.336 141.456 41.336C138.832 41.336 137.52 40.208 137.52 37.952C137.52 37.568 137.56 37.144 137.64 36.68L138.144 33.872C138.4 32.432 138.984 31.288 139.896 30.44C140.824 29.576 142.024 29.144 143.496 29.144C144.984 29.144 145.992 29.488 146.52 30.176L146.64 29.456H150.288L148.944 37.016C148.928 37.112 148.92 37.208 148.92 37.304ZM141.816 36.152C141.784 36.296 141.768 36.496 141.768 36.752C141.768 37.008 141.888 37.264 142.128 37.52C142.368 37.76 142.768 37.88 143.328 37.88C143.904 37.88 144.4 37.656 144.816 37.208L145.536 33.176C145.36 32.776 144.944 32.576 144.288 32.576C143.056 32.576 142.336 33.168 142.128 34.352L141.816 36.152ZM164.102 31.952C164.102 32.48 163.942 32.968 163.622 33.416H159.686C159.814 33.32 159.878 33.16 159.878 32.936C159.878 32.712 159.75 32.536 159.494 32.408C159.238 32.264 158.91 32.192 158.51 32.192C157.31 32.192 156.71 32.56 156.71 33.296C156.71 33.584 156.934 33.792 157.382 33.92C157.83 34.048 158.374 34.152 159.014 34.232C159.654 34.312 160.294 34.432 160.934 34.592C161.574 34.736 162.118 35.032 162.566 35.48C163.014 35.928 163.238 36.528 163.238 37.28C163.238 38.608 162.702 39.616 161.63 40.304C160.574 40.992 159.03 41.336 156.998 41.336C154.966 41.336 153.542 41.008 152.726 40.352C152.086 39.84 151.766 39.136 151.766 38.24C151.766 37.984 151.79 37.72 151.838 37.448L155.846 37.4C155.814 37.624 155.942 37.824 156.23 38C156.534 38.16 156.974 38.24 157.55 38.24C158.126 38.24 158.542 38.184 158.798 38.072C159.054 37.944 159.182 37.712 159.182 37.376C159.182 37.152 158.958 37 158.51 36.92C158.062 36.824 157.51 36.744 156.854 36.68C156.214 36.616 155.566 36.512 154.91 36.368C154.27 36.224 153.726 35.92 153.278 35.456C152.83 34.992 152.606 34.384 152.606 33.632C152.606 32.176 153.166 31.056 154.286 30.272C155.422 29.488 157.054 29.096 159.182 29.096C162.462 29.096 164.102 30.048 164.102 31.952Z" fill="#0B4FFF"/>
</svg>
